<?xml version="1.0" encoding="UTF-8"?>
<svg width="168px" height="75px" viewBox="0 0 168 75" version="1.1" xmlns="http://www.w3.org/2000/svg" xmlns:xlink="http://www.w3.org/1999/xlink">
    <!-- Generator: Sketch 64 (93537) - https://sketch.com -->
    <title>Group 66</title>
    <desc>Created with Sketch.</desc>
    <g id="Page-1" stroke="none" stroke-width="1" fill="none" fill-rule="evenodd">
        <g id="Business-Landing-Page-Verification" transform="translate(-137.000000, -20.000000)">
            <g id="Group-21" transform="translate(137.000000, 20.000000)">
                <g id="Group-66" transform="translate(-0.000000, 0.000000)">
                    <g id="Group-65">
                        <polygon id="Fill-1" fill="#003E7E" points="3.34635434 63.5993248 2.22769872 65.1877601 5.25900311 65.1877601 0 72.7114743 2.04722388 72.7114743 7.30598668 65.1877601 10.3632448 65.1877601 11.4819005 63.5993248"></polygon>
                        <g id="Group-64" transform="translate(0.000000, 0.047923)">
                            <path d="M9.34058316,70.9213895 C9.36087718,70.9340857 9.38235109,70.9453712 9.40453293,70.9533651 C9.42695074,70.9622994 9.4488966,70.9707635 9.47131442,70.9792276 C9.49349626,70.9876918 9.51756591,70.9923941 9.54352338,70.9923941 C9.72687751,71.0260154 9.92981773,71.0241345 10.1516361,70.9858109 C10.3736905,70.9467819 10.6106114,70.8722506 10.8626348,70.7608064 C11.1111186,70.6580615 11.3492194,70.5278081 11.5778811,70.369106 C11.8060708,70.2111092 12.0226977,70.0291307 12.2275258,69.8236407 C12.2985548,69.7552225 12.3651004,69.682337 12.4269263,69.6054547 C12.4885163,69.5283372 12.5541179,69.4472227 12.6239671,69.361406 C12.7023115,69.2760595 12.7719247,69.1904779 12.8328068,69.1046611 C12.8936888,69.0193146 12.9545709,68.933733 13.0156889,68.8479163 C13.1360372,68.6598248 13.2332597,68.4757303 13.3073565,68.2958679 C13.3812173,68.1160054 13.4343121,67.9453124 13.4671129,67.7823782 C13.5034534,67.611215 13.4996778,67.4637983 13.456258,67.3394228 C13.4123663,67.2155175 13.3252908,67.1148886 13.1938516,67.037536 C13.1662423,67.0203727 13.1360372,67.0057956 13.1027645,66.9926292 C13.0694917,66.979933 13.0371629,66.9691177 13.0062499,66.9604185 C12.9666057,66.9524246 12.9288494,66.9460765 12.892037,66.9413742 C12.8549886,66.9376124 12.8167603,66.9307941 12.7773522,66.9218598 C12.6860291,66.9138659 12.5897505,66.9138659 12.4875724,66.9218598 C12.3851584,66.9307941 12.2815645,66.9479574 12.1763188,66.9735849 C12.0663535,66.9905131 11.9537924,67.0184917 11.8393436,67.0568154 C11.7246588,67.0958444 11.609266,67.140281 11.4938733,67.191771 C11.2418498,67.302745 11.0087046,67.4313525 10.7942015,67.5771234 C10.5794624,67.7226591 10.3760502,67.8935873 10.183257,68.0906131 C10.1084523,68.1677306 10.0362434,68.2446129 9.96568623,68.3217304 C9.89560106,68.3988479 9.82716773,68.4757303 9.76156613,68.5526127 C9.69502061,68.6294951 9.6376782,68.7066126 9.58883096,68.7837301 C9.53998373,68.8603774 9.49113649,68.9374949 9.44228925,69.0148475 C9.29739937,69.2203374 9.18413041,69.4173632 9.10248237,69.6054547 C9.02059835,69.7937812 8.96396387,69.9778757 8.93328686,70.157268 C8.9021379,70.3373655 8.91488066,70.4892494 8.97127916,70.6131546 C9.02767766,70.7375301 9.12749593,70.8334568 9.27096995,70.9021102 L9.28914018,70.8891789 C9.30259086,70.897643 9.32005316,70.9086934 9.34058316,70.9213895 M11.2269833,71.9417857 C10.9539579,72.0619291 10.6733813,72.1602069 10.3836015,72.2373244 C10.1993035,72.2885793 10.019253,72.3292541 9.8439221,72.3588785 C9.66859119,72.388738 9.49538407,72.4124846 9.32571661,72.429883 C9.23580937,72.4383471 9.15156559,72.4446952 9.07274927,72.4491624 C8.993461,72.4531593 8.91110502,72.4555105 8.8252094,72.4555105 C8.58451286,72.4555105 8.3563231,72.435996 8.14016817,72.3976724 C7.92401324,72.3588785 7.72697244,72.3059778 7.54904578,72.2373244 C7.37442281,72.1602069 7.22929695,72.06381 7.1139042,71.9481338 C6.99827547,71.8329278 6.91355973,71.6937401 6.86022892,71.531041 C6.80689812,71.3688121 6.78117663,71.1910657 6.78330042,70.9982719 C6.78518824,70.8057133 6.82082077,70.5941104 6.890198,70.3627579 C6.96453076,70.1403397 7.06316914,69.9113384 7.18564121,69.6759889 C7.30834925,69.4406395 7.44899154,69.203174 7.60780406,68.9635925 C7.77487577,68.7237759 7.95563415,68.4884265 8.14984322,68.257074 C8.34334436,68.0264269 8.56091516,67.7950744 8.80231963,67.5641921 C9.03971249,67.3417739 9.28725236,67.132052 9.54423131,66.9350262 C9.80144624,66.7384706 10.070932,66.558373 10.3526885,66.3956739 C10.6221742,66.241674 10.8951996,66.1048375 11.1724726,65.9851643 C11.4490376,65.865256 11.7281984,65.7667431 12.0090111,65.6896256 C12.2898237,65.6125081 12.5656808,65.552789 12.8368184,65.5099982 C13.10772,65.4674425 13.363519,65.4455769 13.6042156,65.4455769 C13.8444402,65.4455769 14.0655506,65.4674425 14.267075,65.5099982 C14.4685993,65.552789 14.6606846,65.6125081 14.8438028,65.6896256 C15.0266849,65.7667431 15.1751145,65.865256 15.2893273,65.9851643 C15.4030682,66.1048375 15.4884919,66.241674 15.5453624,66.3956739 C15.5989292,66.558373 15.621347,66.7384706 15.6135597,66.9350262 C15.6050646,67.132052 15.5684881,67.3417739 15.5028865,67.5641921 C15.4245422,67.7950744 15.3318032,68.0264269 15.2239617,68.257074 C15.1158842,68.4884265 14.9778377,68.7237759 14.810766,68.9635925 C14.6519535,69.203174 14.4681274,69.4406395 14.2597597,69.6759889 C14.051156,69.9113384 13.8281578,70.1403397 13.5905289,70.3627579 C13.3578556,70.5941104 13.1138554,70.8057133 12.8587642,70.9982719 C12.6032012,71.1910657 12.3346593,71.3688121 12.0533747,71.531041 L12.0585662,71.5183448 C11.7768097,71.6810439 11.4995367,71.8221125 11.2269833,71.9417857" id="Fill-2" fill="#003E7E"></path>
                            <path d="M19.1307497,70.9275965 L21.7859629,67.0122377 C21.7479706,67.0204667 21.7099783,67.0249339 21.6712781,67.0249339 L21.549042,67.0249339 L21.4390767,67.0249339 C21.4006125,67.0249339 21.3614403,67.0204667 21.3220321,67.0122377 L21.2252815,67.0122377 L21.1415097,67.0122377 L21.0643452,67.0122377 L20.9869448,67.0122377 C20.7037724,67.0122377 20.4206,67.031282 20.1386075,67.0698407 C19.856379,67.1083995 19.5706108,67.1664727 19.281303,67.24312 C18.9794884,67.3287016 18.6875849,67.4850526 18.4055924,67.7117028 C18.1228919,67.9385881 17.8442031,68.2402398 17.5688179,68.6166578 C17.5652783,68.6253571 17.5589069,68.6361723 17.5494678,68.6491036 C17.5395568,68.6615647 17.52705,68.6768471 17.5114755,68.6937753 C17.4992047,68.7024746 17.4885858,68.7132898 17.4791467,68.725986 C17.4692357,68.7386822 17.4609765,68.7537295 17.4541331,68.7708928 C17.435019,68.7967554 17.4180286,68.8223829 17.4031621,68.8477752 C17.3880596,68.8738729 17.3710692,68.8995004 17.3521911,68.9246576 C17.2334946,69.087827 17.1280129,69.250291 17.0355099,69.412755 C16.942771,69.5754541 16.8646626,69.733686 16.8011848,69.887921 C16.7462021,70.0419209 16.7249642,70.1834597 16.7362911,70.311597 C16.747854,70.4399694 16.788442,70.5551755 16.8578192,70.6581555 C16.9019469,70.7181097 16.953154,70.7653677 17.0121482,70.7992241 C17.0711425,70.8335508 17.1400477,70.8594134 17.2188641,70.8763416 C17.2976804,70.893505 17.3795644,70.9087874 17.4645161,70.9214836 C17.5494678,70.9339446 17.6391391,70.9405278 17.7340018,70.9405278 L17.7788375,70.9405278 L17.8241451,70.9405278 L17.8626093,70.9405278 L17.9013095,70.9405278 L17.9463811,70.9405278 L17.9914528,70.9405278 L18.030153,70.9405278 L18.0688532,70.9405278 L18.0882033,70.9405278 L18.1075534,70.9405278 L18.1332749,70.9405278 L18.1589964,70.9405278 L18.1849539,70.9405278 L18.2028881,70.9275965 L19.1307497,70.9275965 Z M19.20933,73.2256039 C18.8787263,73.5594663 18.5410432,73.8420737 18.1972247,74.072956 C17.8390116,74.2956092 17.4581447,74.4644213 17.0541521,74.5803327 C16.6499235,74.6957738 16.2202094,74.7533768 15.7650098,74.7533768 L12.2421091,74.7663081 L13.1683189,73.3927702 L16.3766621,73.3927702 C16.572759,73.3753718 16.7523375,73.3455123 16.9161056,73.3029566 C17.0798736,73.2601658 17.2367983,73.1912773 17.3875876,73.0974666 C17.5426245,73.011885 17.6865705,72.9025569 17.8182456,72.7699524 C17.9503928,72.6371128 18.071213,72.489461 18.1811783,72.3272321 L16.7252002,72.3272321 C16.4757725,72.3272321 16.2400315,72.320884 16.0179771,72.3079527 C15.7954508,72.2950215 15.5925106,72.2717451 15.4089205,72.2371833 C15.2217907,72.211791 15.0665178,72.1454887 14.9433379,72.0382766 C14.8196859,71.9312996 14.7278909,71.7838829 14.6681887,71.5953212 C14.6162737,71.4502557 14.5889004,71.2917886 14.5867766,71.1203903 C14.5839449,70.9494622 14.6101383,70.7653677 14.6658289,70.5681067 C14.7208115,70.3715512 14.7918406,70.1726444 14.8791521,69.9716217 C14.9662276,69.7703638 15.0691136,69.5667548 15.188046,69.3615 C15.2071601,69.3356375 15.2232066,69.312126 15.2364213,69.2909657 C15.2494,69.2695703 15.259547,69.250291 15.2668623,69.2331276 C15.270166,69.2248986 15.2767734,69.2138482 15.2862124,69.2009169 C15.2958875,69.1884559 15.3022589,69.1776406 15.3060345,69.1691765 C15.3369475,69.1348498 15.3610171,69.102404 15.3780075,69.0725445 C15.3942899,69.042685 15.414112,69.0109446 15.4367658,68.9766179 C15.4714544,68.9338271 15.5011875,68.8931523 15.5257291,68.8543584 C15.5497987,68.8160348 15.5736324,68.7795921 15.5962862,68.7452654 C15.6309748,68.7024746 15.6628317,68.6615647 15.6916209,68.6230059 C15.7201741,68.5849174 15.7501432,68.5484747 15.7815282,68.514148 C15.9313735,68.3171222 16.0975014,68.1222124 16.2796756,67.9298889 C16.4620858,67.7375654 16.6562949,67.5473579 16.8627748,67.3585611 C17.0690187,67.1704696 17.2861175,66.9927232 17.5138353,66.825792 C17.7410812,66.6588609 17.9777661,66.506977 18.2231822,66.3703756 C18.5167376,66.1992124 18.7963703,66.0621407 19.0620804,65.9593958 C19.3277905,65.8564157 19.5871292,65.7795333 19.8403325,65.7282784 C20.0932999,65.6767883 20.3410757,65.6384647 20.5834241,65.6126021 C20.8260085,65.5872098 21.0676489,65.5742785 21.3083454,65.5742785 L24.5863019,65.5615823 L20.1499344,72.0831834 C19.8535472,72.5110915 19.5399338,72.8919767 19.20933,73.2256039 L19.20933,73.2256039 Z" id="Fill-4" fill="#003E7E"></path>
                            <path d="M23.8212409,72.2886969 C23.6041421,72.2630694 23.4004939,72.2200435 23.2105324,72.1600893 C23.020335,72.1003703 22.8681298,72.0105566 22.7543889,71.8908834 C22.640412,71.7709751 22.5623036,71.6169753 22.5195918,71.4284136 C22.476172,71.283348 22.4669689,71.1225298 22.4922185,70.9468994 C22.516996,70.7719744 22.5597079,70.5897608 22.619882,70.4014342 C22.692327,70.2046435 22.7768067,70.0097337 22.8733213,69.8171751 C22.9698359,69.6246165 23.0774414,69.4254746 23.1963738,69.2202198 C23.2117123,69.2032916 23.2263429,69.1840122 23.2393216,69.1623817 C23.2523004,69.1414565 23.2688188,69.11771 23.2879329,69.0918474 C23.3032714,69.0749192 23.317666,69.0556398 23.3308807,69.0340093 C23.3440954,69.0126139 23.3599059,68.9893376 23.379492,68.963475 C23.3863353,68.9467819 23.3945945,68.9312643 23.4042696,68.9185682 C23.4134727,68.9056369 23.4264514,68.8908247 23.4420259,68.8738964 C23.4455655,68.8649621 23.4526448,68.852501 23.4642077,68.8351026 C23.4757706,68.8177041 23.4828499,68.8054782 23.4866255,68.7965438 C23.5057397,68.7709164 23.5279215,68.743408 23.553171,68.7133133 C23.5784206,68.6832187 23.6020183,68.6512432 23.625144,68.6166814 C23.7747534,68.4198907 23.9302623,68.2296832 24.0921425,68.0453536 C24.2535508,67.8617293 24.4288817,67.6755187 24.6183712,67.486957 C24.8073888,67.2988656 25.0074973,67.1211191 25.2179888,66.9544231 C25.4282443,66.787727 25.6491187,66.631376 25.8810841,66.4856051 C26.1817188,66.2977488 26.4729145,66.1435138 26.754199,66.0233704 C27.0352476,65.9036972 27.308509,65.8136484 27.5739831,65.7536942 C27.8385133,65.6939752 28.098088,65.6493035 28.3508194,65.6189737 C28.6037868,65.5891142 28.8503827,65.574302 29.0908433,65.574302 L31.7248185,65.5616058 L30.7570769,66.9737025 L28.38598,66.9737025 C28.1332486,66.9824017 27.893732,67.005678 27.667666,67.0440016 C27.4411281,67.0827955 27.2282768,67.1361665 27.0281683,67.2045847 C26.8278239,67.2734732 26.6296032,67.3952624 26.4330343,67.5706577 C26.2359935,67.746053 26.036593,67.9748193 25.8348326,68.2571916 L29.8988285,68.2447305 L28.9310869,69.6568271 L24.8850252,69.6568271 C24.6962436,69.9481338 24.5782551,70.1834832 24.5301158,70.3628754 C24.4817405,70.5425028 24.507934,70.6671134 24.6089321,70.7350614 C24.7042668,70.7950156 24.8418414,70.8422736 25.020948,70.8763651 C25.2002905,70.9106918 25.4228168,70.9276201 25.6892348,70.9276201 L28.078502,70.915159 L27.123503,72.3272556 L24.507698,72.3272556 C24.2670015,72.3272556 24.0381038,72.3143243 23.8212409,72.2886969" id="Fill-6" fill="#003E7E"></path>
                            <path d="M33.4641578,65.5615353 L35.1306274,63.1092929 L36.9216928,63.1092929 L35.2552232,65.5615353 L37.1494106,65.5615353 L36.2338198,66.9092106 L34.3396325,66.9092106 L32.4798977,69.6438253 C32.2356615,69.9863869 32.0860521,70.256063 32.0310695,70.4528537 C31.9756149,70.6498795 32.0103035,70.7740199 32.1356073,70.8252748 C32.2479324,70.8852289 32.4043851,70.9275495 32.6044936,70.9534121 C32.8043661,70.9792747 33.0462425,70.9924411 33.3296509,70.9924411 L33.3553724,70.9924411 L33.3808579,70.9924411 L33.400208,70.9924411 L33.4197941,70.9924411 L33.4455156,70.9924411 L32.5480951,72.3271851 L30.9118306,72.3271851 C30.5682481,72.3271851 30.2994703,72.2801622 30.1064411,72.1861165 C29.9134119,72.0916005 29.7954234,71.9507671 29.7524756,71.7622054 C29.7095278,71.5741139 29.7324175,71.3512255 29.8211449,71.0947158 C29.9096363,70.837971 30.0634933,70.5471345 30.2834238,70.2215012 L32.5485671,66.9092106 L31.2858541,66.9092106 L32.2014449,65.5615353 L33.4641578,65.5615353 Z" id="Fill-8" fill="#003E7E"></path>
                            <path d="M41.6505303,63.1093634 L39.9840607,65.5616058 L41.581861,65.5616058 C42.0080354,65.5700699 42.361293,65.6189737 42.6423416,65.7092576 C42.9229182,65.7988362 43.1312859,65.9293246 43.2672087,66.1004879 C43.4028955,66.2716511 43.4250773,66.5199318 43.3342262,66.84533 C43.243139,67.170258 43.0390189,67.5727738 42.7218658,68.0517016 L39.8153371,72.3272556 L38.011529,72.3272556 L40.7868545,68.2447305 C40.934812,68.0310116 41.0386419,67.8464468 41.0978721,67.692447 C41.1568664,67.538212 41.1738567,67.4185388 41.1490791,67.3329572 C41.1191101,67.2389114 41.0398218,67.170258 40.9116863,67.1274672 C40.7828428,67.0846764 40.60704,67.063281 40.3838057,67.063281 L38.9717194,67.0505848 L35.3827452,72.3272556 L33.6046585,72.3272556 L39.8724436,63.1093634 L41.6505303,63.1093634 Z" id="Fill-10" fill="#003E7E"></path>
                            <path d="M43.7029874,72.2886969 C43.4858886,72.2630694 43.2824764,72.2200435 43.0925149,72.1600893 C42.9020815,72.1003703 42.7501123,72.0105566 42.6361354,71.8908834 C42.5223945,71.7709751 42.4440501,71.6169753 42.4013383,71.4284136 C42.3581545,71.283348 42.3487154,71.1225298 42.373965,70.9468994 C42.3989785,70.7719744 42.4414544,70.5897608 42.5018645,70.4014342 C42.5743094,70.2046435 42.6585532,70.0097337 42.7550678,69.8171751 C42.8515824,69.6246165 42.9591879,69.4254746 43.0783563,69.2202198 C43.0936948,69.2032916 43.1080894,69.1840122 43.1213041,69.1623817 C43.1342828,69.1414565 43.1505653,69.11771 43.1696794,69.0918474 C43.1852539,69.0749192 43.1996485,69.0556398 43.2126272,69.0340093 C43.2258419,69.0126139 43.2421243,68.9893376 43.2612385,68.963475 C43.2680818,68.9467819 43.276341,68.9312643 43.2860161,68.9185682 C43.2954551,68.9056369 43.3081979,68.8908247 43.3240084,68.8738964 C43.327312,68.8649621 43.3348633,68.852501 43.3461902,68.8351026 C43.3575171,68.8177041 43.3648324,68.8054782 43.368608,68.7965438 C43.3874862,68.7709164 43.409904,68.743408 43.4349175,68.7133133 C43.4601671,68.6832187 43.4840008,68.6512432 43.5068905,68.6166814 C43.6567359,68.4198907 43.8122448,68.2296832 43.973889,68.0453536 C44.1355333,67.8617293 44.3111001,67.6755187 44.5001177,67.486957 C44.6891353,67.2988656 44.8892438,67.1211191 45.0997353,66.9544231 C45.3099908,66.787727 45.5308652,66.631376 45.7628306,66.4856051 C46.0634653,66.2977488 46.354661,66.1435138 46.6359455,66.0233704 C46.9172301,65.9036972 47.1904915,65.8136484 47.4557296,65.7536942 C47.7204958,65.6939752 47.9798345,65.6493035 48.2325659,65.6189737 C48.4855333,65.5891142 48.7321292,65.574302 48.9728258,65.574302 L51.606565,65.5616058 L50.6388234,66.9737025 L48.2679625,66.9737025 C48.0149951,66.9824017 47.7757144,67.005678 47.5494125,67.0440016 C47.3231106,67.0827955 47.1100233,67.1361665 46.9099148,67.2045847 C46.7098063,67.2734732 46.5113497,67.3952624 46.3147808,67.5706577 C46.117976,67.746053 45.9183395,67.9748193 45.7168151,68.2571916 L49.780575,68.2447305 L48.8130693,69.6568271 L44.7670077,69.6568271 C44.5782261,69.9481338 44.4602376,70.1834832 44.4120983,70.3628754 C44.363487,70.5425028 44.3899165,70.6671134 44.4906786,70.7350614 C44.5862493,70.7950156 44.7235879,70.8422736 44.9029305,70.8763651 C45.082037,70.9106918 45.3047993,70.9276201 45.5712173,70.9276201 L47.9602485,70.915159 L47.0052495,72.3272556 L44.3896805,72.3272556 C44.1489839,72.3272556 43.9200863,72.3143243 43.7029874,72.2886969" id="Fill-12" fill="#003E7E"></path>
                            <path d="M55.7683498,65.5615353 C56.2457313,65.5699994 56.5895497,65.6276024 56.7988613,65.7345794 C57.007937,65.8415565 57.0756624,66.0066067 57.0013296,66.2290249 C56.9303005,66.4429789 56.8104242,66.6976077 56.6417007,66.9926762 C56.4729771,67.2882149 56.2657893,67.6201963 56.0196653,67.9879151 C55.9972475,68.0217716 55.9741217,68.0563334 55.9517039,68.0906601 C55.9290501,68.1247517 55.9061604,68.1590784 55.8835066,68.1929348 C55.8679321,68.2103333 55.8547174,68.2274966 55.8431545,68.24466 C55.8315916,68.2618233 55.8226245,68.2792218 55.8157812,68.2959149 C55.7964311,68.3217775 55.7810925,68.3431729 55.7700016,68.359866 C55.7584388,68.3772644 55.7449881,68.3944278 55.7294136,68.411356 L54.0209401,68.3986598 C54.0362786,68.3814965 54.0518531,68.359866 54.0669556,68.3342385 C54.0815862,68.3090813 54.0985765,68.2829836 54.1176907,68.257121 C54.1332652,68.2404279 54.1453,68.2274966 54.1528513,68.2187974 C54.1608745,68.2103333 54.1679538,68.1976371 54.1752691,68.1807089 L54.1804606,68.1677776 C54.1840002,68.1590784 54.1894277,68.1506142 54.1974509,68.141915 C54.2052381,68.1334509 54.2109016,68.1247517 54.2144412,68.1160524 C54.4270565,67.8080527 54.5842172,67.5621231 54.6859233,67.3782637 C54.7873934,67.1939341 54.8272735,67.0761418 54.8053277,67.025122 C54.791877,66.9736319 54.7048015,66.9350732 54.5436292,66.9092106 C54.3822209,66.8838183 54.1471878,66.870887 53.8380579,66.870887 L53.786379,66.870887 L53.734936,66.870887 L53.6962358,66.870887 L53.6705143,66.870887 L53.6447928,66.870887 L49.9430216,72.3271851 L48.1519562,72.3271851 L52.7530357,65.5615353 L55.7683498,65.5615353 Z" id="Fill-14" fill="#003E7E"></path>
                            <path d="M64.3885424,65.5615353 L66.0550119,63.1092929 L67.8460774,63.1092929 L66.1793718,65.5615353 L68.0737952,65.5615353 L67.1579684,66.9092106 L65.264017,66.9092106 L63.4042823,69.6438253 C63.1600461,69.9863869 63.0104367,70.256063 62.9554541,70.4528537 C62.8999995,70.6498795 62.9349241,70.7740199 63.0599919,70.8252748 C63.1725529,70.8852289 63.3290056,70.9275495 63.5288782,70.9534121 C63.7287507,70.9792747 63.9703911,70.9924411 64.2537995,70.9924411 L64.279521,70.9924411 L64.3054785,70.9924411 L64.3245926,70.9924411 L64.3441787,70.9924411 L64.3696642,70.9924411 L63.4724797,72.3271851 L61.8362151,72.3271851 C61.4923967,72.3271851 61.2240908,72.2801622 61.0308256,72.1861165 C60.8375605,72.0916005 60.719808,71.9507671 60.6768601,71.7622054 C60.6341483,71.5741139 60.6570381,71.3512255 60.7455295,71.0947158 C60.8340208,70.837971 60.9878778,70.5471345 61.2078084,70.2215012 L63.4729516,66.9092106 L62.2102387,66.9092106 L63.1258294,65.5615353 L64.3885424,65.5615353 Z" id="Fill-16" fill="#003E7E"></path>
                            <path d="M68.0971097,70.9213895 C68.1171677,70.9340857 68.1388776,70.9453712 68.1610595,70.9533651 C68.1834773,70.9622994 68.2054231,70.9707635 68.227605,70.9792276 C68.2500228,70.9876918 68.2740924,70.9923941 68.2998139,70.9923941 C68.483404,71.0260154 68.6861083,71.0241345 68.9079267,70.9858109 C69.130217,70.9467819 69.3671379,70.8722506 69.6191613,70.7608064 C69.8674091,70.6580615 70.1057459,70.5278081 70.3341716,70.369106 C70.5623614,70.2111092 70.7792243,70.0291307 70.9840523,69.8236407 C71.0548454,69.7552225 71.1216269,69.682337 71.1832169,69.6054547 C71.2450429,69.5283372 71.3106445,69.4472227 71.3802577,69.361406 C71.458838,69.2760595 71.5282153,69.1904779 71.5890973,69.1046611 C71.6499794,69.0193146 71.7110974,68.933733 71.7722155,68.8479163 C71.8923278,68.6598248 71.9897863,68.4757303 72.063883,68.2958679 C72.1377438,68.1160054 72.1908387,67.9453124 72.2236395,67.7823782 C72.259744,67.611215 72.2559683,67.4637983 72.2125486,67.3394228 C72.1688928,67.2155175 72.0815813,67.1148886 71.9503781,67.037536 C71.9227688,67.0203727 71.8923278,67.0057956 71.859055,66.9926292 C71.8260182,66.979933 71.7936894,66.9691177 71.7627764,66.9604185 C71.7231323,66.9524246 71.6853759,66.9460765 71.6483275,66.9413742 C71.6115151,66.9376124 71.5732869,66.9307941 71.5338787,66.9218598 C71.4425556,66.9138659 71.346277,66.9138659 71.2440989,66.9218598 C71.1416849,66.9307941 71.0378551,66.9479574 70.9328453,66.9735849 C70.82288,66.9905131 70.710319,67.0184917 70.5958701,67.0568154 C70.4809493,67.0958444 70.3660285,67.140281 70.2503998,67.191771 C69.9983764,67.302745 69.7652311,67.4313525 69.550492,67.5771234 C69.3359889,67.7226591 69.1323408,67.8935873 68.9397836,68.0906131 C68.8649788,68.1677306 68.7927699,68.2446129 68.7222128,68.3217304 C68.6521276,68.3988479 68.5836943,68.4757303 68.5178567,68.5526127 C68.4515471,68.6294951 68.3942047,68.7066126 68.3451215,68.7837301 C68.2962743,68.8603774 68.247427,68.9374949 68.1985798,69.0148475 C68.0536899,69.2203374 67.9406569,69.4173632 67.8590089,69.6054547 C67.7771249,69.7937812 67.7207264,69.9778757 67.6895774,70.157268 C67.6586644,70.3373655 67.6711712,70.4892494 67.7278057,70.6131546 C67.7839682,70.7375301 67.8837865,70.8334568 68.0274965,70.9021102 L68.0454307,70.8891789 C68.0591174,70.897643 68.0765797,70.9086934 68.0971097,70.9213895 M69.9835098,71.9417857 C69.7104844,72.0619291 69.4296718,72.1602069 69.140128,72.2373244 C68.955594,72.2885793 68.7757795,72.3292541 68.6004486,72.3588785 C68.4251177,72.388738 68.2521466,72.4124846 68.0820072,72.429883 C67.9923359,72.4383471 67.9078561,72.4446952 67.8290398,72.4491624 C67.7497515,72.4531593 67.6673956,72.4555105 67.5814999,72.4555105 C67.3408034,72.4555105 67.1126136,72.435996 66.8966947,72.3976724 C66.6805398,72.3588785 66.483499,72.3059778 66.3055723,72.2373244 C66.1309493,72.1602069 65.9858235,72.06381 65.8704307,71.9481338 C65.754566,71.8329278 65.6698503,71.6937401 65.6167555,71.531041 C65.5634247,71.3688121 65.5377032,71.1910657 65.539827,70.9982719 C65.5417148,70.8057133 65.5771113,70.5941104 65.6467245,70.3627579 C65.7208213,70.1403397 65.8194597,69.9113384 65.9421677,69.6759889 C66.0646398,69.4406395 66.2055181,69.203174 66.3640946,68.9635925 C66.5314023,68.7237759 66.7119247,68.4884265 66.9061338,68.257074 C67.0998709,68.0264269 67.3174417,67.7950744 67.5586102,67.5641921 C67.796239,67.3417739 68.0435429,67.132052 68.3007578,66.9350262 C68.5577368,66.7384706 68.8272225,66.558373 69.1089791,66.3956739 C69.3784648,66.241674 69.6517262,66.1048375 69.9287632,65.9851643 C70.2055642,65.865256 70.484489,65.7667431 70.7655376,65.6896256 C71.0463502,65.6125081 71.3219714,65.552789 71.5933449,65.5099982 C71.8640105,65.4674425 72.1198096,65.4455769 72.3607421,65.4455769 C72.6007307,65.4455769 72.8220771,65.4674425 73.0233655,65.5099982 C73.2248899,65.552789 73.4172111,65.6125081 73.6003293,65.6896256 C73.7832115,65.7667431 73.931641,65.865256 74.0456179,65.9851643 C74.1593588,66.1048375 74.2447825,66.241674 74.3016529,66.3956739 C74.3552197,66.558373 74.3776375,66.7384706 74.3700863,66.9350262 C74.3615911,67.132052 74.3250146,67.3417739 74.2591771,67.5641921 C74.1813047,67.7950744 74.0883297,68.0264269 73.9804882,68.257074 C73.8721748,68.4884265 73.7343642,68.7237759 73.5672925,68.9635925 C73.40848,69.203174 73.2246539,69.4406395 73.0162862,69.6759889 C72.8074466,69.9113384 72.5846843,70.1403397 72.3470554,70.3627579 C72.1143821,70.5941104 71.8703819,70.8057133 71.6152908,70.9982719 C71.3597277,71.1910657 71.0911859,71.3688121 70.8096653,71.531041 L70.8150928,71.5183448 C70.5331002,71.6810439 70.2558273,71.8221125 69.9835098,71.9417857" id="Fill-18" fill="#003E7E"></path>
                            <path d="M82.5568127,65.5615353 L84.2230463,63.1092929 L86.0141117,63.1092929 L84.3476421,65.5615353 L86.2418295,65.5615353 L85.3264747,66.9092106 L83.4320514,66.9092106 L81.5725526,69.6438253 C81.3283164,69.9863869 81.178471,70.256063 81.1234884,70.4528537 C81.0680338,70.6498795 81.1029584,70.7740199 81.2280262,70.8252748 C81.3405872,70.8852289 81.496804,70.9275495 81.6969125,70.9534121 C81.896549,70.9792747 82.1386614,70.9924411 82.4220698,70.9924411 L82.4477913,70.9924411 L82.4735128,70.9924411 L82.4928629,70.9924411 L82.512213,70.9924411 L82.5381705,70.9924411 L81.640514,72.3271851 L80.0042495,72.3271851 C79.660431,72.3271851 79.3921251,72.2801622 79.19886,72.1861165 C79.0055948,72.0916005 78.8878423,71.9507671 78.8451305,71.7622054 C78.8019467,71.5741139 78.8250724,71.3512255 78.9135638,71.0947158 C79.0018192,70.837971 79.1559122,70.5471345 79.3760787,70.2215012 L81.6412219,66.9092106 L80.378273,66.9092106 L81.2938638,65.5615353 L82.5568127,65.5615353 Z" id="Fill-20" fill="#003E7E"></path>
                            <path d="M90.7427368,63.1093634 L89.0762672,65.5616058 L90.6740675,65.5616058 C91.100006,65.5700699 91.4537355,65.6189737 91.7343121,65.7092576 C92.0153607,65.7988362 92.2234925,65.9293246 92.3596512,66.1004879 C92.494866,66.2716511 92.5175198,66.5199318 92.4266687,66.84533 C92.3358175,67.170258 92.1314614,67.5727738 91.8143083,68.0517016 L88.9077796,72.3272556 L87.1034995,72.3272556 L89.879061,68.2447305 C90.0270186,68.0310116 90.1308484,67.8464468 90.1900787,67.692447 C90.2493089,67.538212 90.2660633,67.4185388 90.2412857,67.3329572 C90.2113166,67.2389114 90.1322643,67.170258 90.0038928,67.1274672 C89.8752853,67.0846764 89.6992465,67.063281 89.4764842,67.063281 L88.0639259,67.0505848 L84.4749517,72.3272556 L82.697101,72.3272556 L88.9646501,63.1093634 L90.7427368,63.1093634 Z" id="Fill-22" fill="#003E7E"></path>
                            <path d="M92.7957839,72.2886969 C92.5784491,72.2630694 92.3748009,72.2200435 92.1846035,72.1600893 C91.9948779,72.1003703 91.8424368,72.0105566 91.7289319,71.8908834 C91.614955,71.7709751 91.5366106,71.6169753 91.4938988,71.4284136 C91.450715,71.283348 91.4412759,71.1225298 91.4665254,70.9468994 C91.491303,70.7719744 91.5337789,70.5897608 91.594661,70.4014342 C91.6668699,70.2046435 91.7513497,70.0097337 91.8473923,69.8171751 C91.9441429,69.6246165 92.0517484,69.4254746 92.1709168,69.2202198 C92.1864913,69.2032916 92.2008859,69.1840122 92.2138646,69.1623817 C92.2266074,69.1414565 92.2428898,69.11771 92.2617679,69.0918474 C92.2778144,69.0749192 92.291973,69.0556398 92.3054237,69.0340093 C92.3184024,69.0126139 92.3342129,68.9893376 92.353799,68.963475 C92.3606423,68.9467819 92.3686655,68.9312643 92.3785765,68.9185682 C92.3880156,68.9056369 92.4007584,68.8908247 92.4165688,68.8738964 C92.4196365,68.8649621 92.4274238,68.852501 92.4387507,68.8351026 C92.4500776,68.8177041 92.4573929,68.8054782 92.4609325,68.7965438 C92.4802826,68.7709164 92.5024645,68.743408 92.527714,68.7133133 C92.5529635,68.6832187 92.5763253,68.6512432 92.599687,68.6166814 C92.7492964,68.4198907 92.9048053,68.2296832 93.0662135,68.0453536 C93.2278578,67.8617293 93.4031887,67.6755187 93.5926782,67.486957 C93.7821677,67.2988656 93.9815683,67.1211191 94.1922958,66.9544231 C94.4025513,66.787727 94.6234257,66.631376 94.8556271,66.4856051 C95.1560258,66.2977488 95.4469855,66.1435138 95.728506,66.0233704 C96.0097906,65.9036972 96.282816,65.8136484 96.5480541,65.7536942 C96.8132923,65.6939752 97.0721591,65.6493035 97.3253624,65.6189737 C97.5778578,65.5891142 97.8246897,65.574302 98.0653862,65.574302 L100.699362,65.5616058 L99.7313839,66.9737025 L97.360287,66.9737025 C97.1073196,66.9824017 96.8680389,67.005678 96.642209,67.0440016 C96.4154351,67.0827955 96.2025838,67.1361665 96.0027113,67.2045847 C95.8023668,67.2734732 95.6039102,67.3952624 95.4073413,67.5706577 C95.2105365,67.746053 95.0111359,67.9748193 94.8091396,68.2571916 L98.8736075,68.2447305 L97.9053938,69.6568271 L93.8595682,69.6568271 C93.6705506,69.9481338 93.5525621,70.1834832 93.5044228,70.3628754 C93.4562835,70.5425028 93.4827129,70.6671134 93.5832391,70.7350614 C93.6785738,70.7950156 93.8159124,70.8422736 93.9954909,70.8763651 C94.1748335,70.9106918 94.3971238,70.9276201 94.6633058,70.9276201 L97.052573,70.915159 L96.09781,72.3272556 L93.482005,72.3272556 C93.2415444,72.3272556 93.0126467,72.3143243 92.7957839,72.2886969" id="Fill-24" fill="#003E7E"></path>
                            <path d="M110.208291,65.5615353 C110.643196,65.5699994 111.005421,65.6172574 111.297325,65.7026039 C111.588284,65.7881855 111.801843,65.9165579 111.93753,66.0877212 C112.06425,66.2591195 112.079824,66.509046 111.982838,66.8386763 C111.885379,67.1683066 111.67418,67.5729383 111.348296,68.0518662 L108.441767,72.3271851 L106.651173,72.3271851 L109.408093,68.257121 C109.572097,68.0262388 109.688433,67.8317992 109.757811,67.6733322 C109.82766,67.5148651 109.84937,67.3930759 109.824828,67.3074943 C109.796511,67.2303768 109.717694,67.1704226 109.589559,67.1273967 C109.460952,67.084841 109.276653,67.0634456 109.036193,67.0634456 L107.611364,67.0505143 L104.021918,72.3271851 L102.231324,72.3271851 L106.832404,65.5615353 L110.208291,65.5615353 Z" id="Fill-26" fill="#003E7E"></path>
                            <path d="M112.303743,72.2886969 C112.086644,72.2630694 111.883232,72.2200435 111.692798,72.1600893 C111.503073,72.1003703 111.350868,72.0105566 111.236891,71.8908834 C111.122914,71.7709751 111.04457,71.6169753 111.001622,71.4284136 C110.958438,71.283348 110.949471,71.1225298 110.974484,70.9468994 C110.999498,70.7719744 111.041974,70.5897608 111.102384,70.4014342 C111.175065,70.2046435 111.259309,70.0097337 111.355587,69.8171751 C111.452102,69.6246165 111.559943,69.4254746 111.67864,69.2202198 C111.694686,69.2032916 111.708845,69.1840122 111.721824,69.1623817 C111.734802,69.1414565 111.750613,69.11771 111.769963,69.0918474 C111.785773,69.0749192 111.799932,69.0556398 111.813619,69.0340093 C111.826597,69.0126139 111.842644,68.9893376 111.861758,68.963475 C111.868601,68.9467819 111.876624,68.9312643 111.886771,68.9185682 C111.896447,68.9056369 111.908953,68.8908247 111.924528,68.8738964 C111.927831,68.8649621 111.935383,68.852501 111.946946,68.8351026 C111.958037,68.8177041 111.965588,68.8054782 111.969127,68.7965438 C111.988242,68.7709164 112.010423,68.743408 112.035673,68.7133133 C112.060922,68.6832187 112.084284,68.6512432 112.10741,68.6166814 C112.257255,68.4198907 112.412764,68.2296832 112.574408,68.0453536 C112.736289,67.8617293 112.911856,67.6755187 113.100873,67.486957 C113.290127,67.2988656 113.489291,67.1211191 113.700491,66.9544231 C113.91051,66.787727 114.131385,66.631376 114.363586,66.4856051 C114.664457,66.2977488 114.95518,66.1435138 115.236465,66.0233704 C115.517986,65.9036972 115.791011,65.8136484 116.055777,65.7536942 C116.321251,65.6939752 116.580354,65.6493035 116.833321,65.6189737 C117.086289,65.5891142 117.332649,65.574302 117.573345,65.574302 L120.207556,65.5616058 L119.239343,66.9737025 L116.868246,66.9737025 C116.615515,66.9824017 116.376234,67.005678 116.150404,67.0440016 C115.92363,67.0827955 115.710543,67.1361665 115.510906,67.2045847 C115.310562,67.2734732 115.111869,67.3952624 114.9153,67.5706577 C114.718731,67.746053 114.519331,67.9748193 114.317099,68.2571916 L118.381802,68.2447305 L117.414061,69.6568271 L113.367999,69.6568271 C113.178746,69.9481338 113.060993,70.1834832 113.012382,70.3628754 C112.964242,70.5425028 112.990436,70.6671134 113.091198,70.7350614 C113.186533,70.7950156 113.324107,70.8422736 113.50345,70.8763651 C113.682792,70.9106918 113.905083,70.9276201 114.171737,70.9276201 L116.560768,70.915159 L115.606241,72.3272556 L112.990436,72.3272556 C112.749739,72.3272556 112.520842,72.3143243 112.303743,72.2886969" id="Fill-28" fill="#003E7E"></path>
                            <polygon id="Fill-30" fill="#003E7E" points="120.593591 65.5615353 122.681516 65.5615353 122.742634 67.6027979 125.631936 65.5615353 127.693903 65.5615353 122.842452 68.989267 123.053651 72.3271851 120.966199 72.3271851 120.859537 70.3628049 118.092707 72.3271851 116.017997 72.3271851 120.80951 68.9504732"></polygon>
                            <path d="M129.072174,65.5615353 L130.738644,63.1092929 L132.529473,63.1092929 L130.863475,65.5615353 L132.757191,65.5615353 L131.841836,66.9092106 L129.947649,66.9092106 L128.087914,69.6438253 C127.843678,69.9863869 127.693832,70.256063 127.638614,70.4528537 C127.583631,70.6498795 127.618084,70.7740199 127.743387,70.8252748 C127.856184,70.8852289 128.012637,70.9275495 128.212274,70.9534121 C128.41191,70.9792747 128.654259,70.9924411 128.937195,70.9924411 L128.963389,70.9924411 L128.98911,70.9924411 L129.008224,70.9924411 L129.027574,70.9924411 L129.053532,70.9924411 L128.156111,72.3271851 L126.519847,72.3271851 C126.176028,72.3271851 125.907486,72.2801622 125.714457,72.1861165 C125.52072,72.0916005 125.402968,71.9507671 125.360492,71.7622054 C125.317544,71.5741139 125.34067,71.3512255 125.428925,71.0947158 C125.517416,70.837971 125.671273,70.5471345 125.89144,70.2215012 L128.156583,66.9092106 L126.893634,66.9092106 L127.809225,65.5615353 L129.072174,65.5615353 Z" id="Fill-32" fill="#003E7E"></path>
                            <polygon id="Fill-34" fill="#003E7E" points="134.172864 72.3272556 140.440649 63.1093634 142.309351 63.1093634 136.041802 72.3272556"></polygon>
                            <path d="M139.916521,72.2886969 C139.69895,72.2630694 139.495774,72.2200435 139.305812,72.1600893 C139.115143,72.1003703 138.963409,72.0105566 138.849669,71.8908834 C138.735692,71.7709751 138.657111,71.6169753 138.614635,71.4284136 C138.571452,71.283348 138.562249,71.1225298 138.587498,70.9468994 C138.612276,70.7719744 138.654988,70.5897608 138.715398,70.4014342 C138.787607,70.2046435 138.87185,70.0097337 138.968129,69.8171751 C139.064408,69.6246165 139.172249,69.4254746 139.291653,69.2202198 C139.306992,69.2032916 139.321387,69.1840122 139.334601,69.1623817 C139.34758,69.1414565 139.363862,69.11771 139.382977,69.0918474 C139.398551,69.0749192 139.412474,69.0556398 139.425924,69.0340093 C139.438903,69.0126139 139.455186,68.9893376 139.474772,68.963475 C139.481379,68.9467819 139.489638,68.9312643 139.499077,68.9185682 C139.508988,68.9056369 139.521259,68.8908247 139.537541,68.8738964 C139.540373,68.8649621 139.547924,68.852501 139.559487,68.8351026 C139.570578,68.8177041 139.57813,68.8054782 139.581905,68.7965438 C139.600783,68.7709164 139.623201,68.743408 139.648215,68.7133133 C139.6737,68.6832187 139.697062,68.6512432 139.720424,68.6166814 C139.869797,68.4198907 140.025542,68.2296832 140.187422,68.0453536 C140.348358,67.8617293 140.524161,67.6755187 140.713415,67.486957 C140.902432,67.2988656 141.102541,67.1211191 141.313032,66.9544231 C141.523052,66.787727 141.743926,66.631376 141.976364,66.4856051 C142.276763,66.2977488 142.567958,66.1435138 142.849243,66.0233704 C143.130527,65.9036972 143.403317,65.8136484 143.669027,65.7536942 C143.933793,65.6939752 144.192896,65.6493035 144.445863,65.6189737 C144.698594,65.5891142 144.945426,65.574302 145.186123,65.574302 L147.819862,65.5616058 L146.852357,66.9737025 L144.48126,66.9737025 C144.228292,66.9824017 143.988776,67.005678 143.762946,67.0440016 C143.535936,67.0827955 143.323556,67.1361665 143.123448,67.2045847 C142.923339,67.2734732 142.725119,67.3952624 142.527606,67.5706577 C142.331037,67.746053 142.131873,67.9748193 141.92964,68.2571916 L145.993872,68.2447305 L145.026366,69.6568271 L140.980305,69.6568271 C140.791287,69.9481338 140.673535,70.1834832 140.625159,70.3628754 C140.576784,70.5425028 140.60345,70.6671134 140.703976,70.7350614 C140.799546,70.7950156 140.936649,70.8422736 141.116228,70.8763651 C141.295334,70.9106918 141.51786,70.9276201 141.784279,70.9276201 L144.17331,70.915159 L143.218547,72.3272556 L140.602742,72.3272556 C140.362517,72.3272556 140.133147,72.3143243 139.916521,72.2886969" id="Fill-36" fill="#003E7E"></path>
                            <polygon id="Fill-38" fill="#003E7E" points="150.216775 65.5615353 148.820263 70.3628049 154.095293 65.5615353 156.027945 65.5615353 148.411551 72.3271851 146.478427 72.3271851 148.206487 65.5615353"></polygon>
                            <path d="M154.566917,72.2886969 C154.34911,72.2630694 154.145934,72.2200435 153.955972,72.1600893 C153.765775,72.1003703 153.613569,72.0105566 153.500065,71.8908834 C153.386088,71.7709751 153.307507,71.6169753 153.265031,71.4284136 C153.221612,71.283348 153.212645,71.1225298 153.237894,70.9468994 C153.262436,70.7719744 153.305148,70.5897608 153.365794,70.4014342 C153.438239,70.2046435 153.522246,70.0097337 153.618525,69.8171751 C153.71504,69.6246165 153.822881,69.4254746 153.941813,69.2202198 C153.957624,69.2032916 153.972019,69.1840122 153.984761,69.1623817 C153.99774,69.1414565 154.014022,69.11771 154.033137,69.0918474 C154.048947,69.0749192 154.062634,69.0556398 154.076084,69.0340093 C154.089299,69.0126139 154.105346,68.9893376 154.125168,68.963475 C154.131775,68.9467819 154.139798,68.9312643 154.149709,68.9185682 C154.159148,68.9056369 154.171891,68.8908247 154.187702,68.8738964 C154.190769,68.8649621 154.19832,68.852501 154.209883,68.8351026 C154.22121,68.8177041 154.228762,68.8054782 154.232301,68.7965438 C154.251415,68.7709164 154.273361,68.743408 154.298611,68.7133133 C154.324096,68.6832187 154.347458,68.6512432 154.37082,68.6166814 C154.520193,68.4198907 154.675938,68.2296832 154.837582,68.0453536 C154.99899,67.8617293 155.174321,67.6755187 155.363575,67.486957 C155.552828,67.2988656 155.752701,67.1211191 155.963428,66.9544231 C156.173448,66.787727 156.394322,66.631376 156.62676,66.4856051 C156.927159,66.2977488 157.218354,66.1435138 157.499639,66.0233704 C157.780687,65.9036972 158.053713,65.8136484 158.319187,65.7536942 C158.584425,65.6939752 158.843056,65.6493035 159.096023,65.6189737 C159.348518,65.5891142 159.595822,65.574302 159.836283,65.574302 L162.470258,65.5616058 L161.502281,66.9737025 L159.131184,66.9737025 C158.878924,66.9824017 158.639172,67.005678 158.413342,67.0440016 C158.186568,67.0827955 157.973481,67.1361665 157.773844,67.2045847 C157.5735,67.2734732 157.375279,67.3952624 157.178002,67.5706577 C156.981669,67.746053 156.782269,67.9748193 156.580036,68.2571916 L160.644268,68.2447305 L159.676527,69.6568271 L155.630701,69.6568271 C155.441683,69.9481338 155.323695,70.1834832 155.27532,70.3628754 C155.22718,70.5425028 155.253846,70.6671134 155.354608,70.7350614 C155.449942,70.7950156 155.587281,70.8422736 155.766624,70.8763651 C155.94573,70.9106918 156.168492,70.9276201 156.434439,70.9276201 L158.823706,70.915159 L157.868943,72.3272556 L155.253138,72.3272556 C155.012913,72.3272556 154.783543,72.3143243 154.566917,72.2886969" id="Fill-40" fill="#003E7E"></path>
                            <polygon id="Fill-42" fill="#003E7E" points="158.989621 72.3272556 165.257406 63.1093634 167.126108 63.1093634 160.858559 72.3272556"></polygon>
                            <path d="M43.6973476,54.6094163 L49.4235654,46.3110563 L26.4528564,46.3110563 C26.4528564,46.3110563 25.5835171,46.4206195 25.3359773,45.5445836 C25.0905612,44.6774819 25.5903605,44.2030212 25.5903605,44.2030212 L32.7326763,34.1862105 L21.6417574,34.1862105 L13.2055796,45.5591606 C13.2055796,45.5591606 11.6962707,48.0972198 11.5884293,50.3529066 C11.4803518,52.6088285 13.2728331,54.394757 15.5370324,54.6094163" id="Fill-44" fill="#003E7E"></path>
                            <path d="M69.0134792,17.8856639 L62.8929437,26.8284723 L27.6141464,26.8284723 C27.6141464,26.8284723 29.5548213,23.7940869 33.3958189,21.0009287 C37.2358726,18.2080056 41.5077642,17.7779815 41.5077642,17.7779815 L69.0134792,17.8856639 Z" id="Fill-46" fill="#003E7E"></path>
                            <polyline id="Fill-48" fill="#003E7E" points="48.0814698 54.5345794 61.9033506 34.3180391 72.4409035 34.3180391 59.2512051 54.5345794"></polyline>
                            <path d="M90.3115596,54.5345794 L87.6964625,41.7862105 C87.6964625,41.7862105 93.0321384,40.6576618 96.4420061,37.7589373 C98.9832424,35.5996473 102.615164,27.508423 102.615164,27.508423 C102.615164,27.508423 103.202747,25.6775877 103.349761,23.9201082 C103.496774,22.1623935 102.44998,20.1258332 102.027346,19.5267619 C100.6516,17.5811909 98.3338337,17.9159937 98.3338337,17.9159937 L73.0734398,17.9159937 L67.2681697,26.7029213 L89.3136129,26.7029213 C89.3136129,26.7029213 90.2686118,26.5564451 91.0034442,27.2885911 C91.7389845,28.020502 91.6651237,28.7528831 91.6651237,29.1191912 C91.6651237,29.4852642 90.4156255,31.6085817 89.6074043,32.5605596 C88.7989471,33.5125375 87.2558935,34.1715629 86.6683107,34.3180391 C86.0795481,34.4647505 85.4188125,34.4647505 85.4188125,34.4647505 L75.3515618,34.4647505 L79.5097125,54.5345794" id="Fill-50" fill="#003E7E"></path>
                            <polygon id="Fill-52" fill="#003E7E" points="116.577381 17.8429671 127.376632 17.8429671 121.259164 26.7761359 110.559495 26.7761359"></polygon>
                            <polyline id="Fill-54" fill="#003E7E" points="91.8274287 54.5345794 105.627364 34.3180391 116.011295 34.3180391 102.410053 54.5345794"></polyline>
                            <polygon id="Fill-56" fill="#003E7E" points="131.862885 17.8429671 166.549144 17.8429671 160.156055 26.7761359 125.845 26.7761359"></polygon>
                            <polyline id="Fill-58" fill="#003E7E" points="106.959454 54.5345794 120.766468 34.3180391 144.355909 34.3180391 137.825953 43.4748016 125.186317 43.4748016 117.542078 54.5345794"></polyline>
                            <path d="M19.312452,10.9045789 C22.667337,9.75392935 24.0560616,9.15297714 25.9061213,11.1037207 C27.7568889,13.0549345 28.6944255,15.6200317 28.6944255,15.6200317 C28.6944255,15.6200317 27.1032326,17.2023511 24.5282516,18.1362252 C22.831813,18.7510492 20.7519117,19.0360078 20.7519117,19.0360078 C20.7519117,19.0360078 21.2543067,17.2547816 21.785255,15.787198 C22.3162032,14.3189091 23.9135315,10.9045789 23.9135315,10.9045789 L22.2805707,10.7178981 C22.2805707,10.7178981 20.3800119,13.2627755 18.8737707,16.7718568 C17.7210231,19.4573326 17.0425892,22.4672662 17.0425892,22.4672662 C17.0425892,22.4672662 22.9859059,21.7997766 26.4226749,20.6952095 C29.8601519,19.5901722 32.4115352,18.5944631 33.0687311,17.8599659 C33.7249832,17.125939 34.9464001,15.406783 35.7326755,10.9410216 C36.4004904,7.15050843 35.2168298,4.46714865 35.2168298,4.46714865 C35.2168298,4.46714865 34.7887675,4.2677717 33.0132766,5.053994 C32.6680422,5.20705343 32.3645758,5.37374949 32.0920224,5.53198143 C31.5053835,5.8728972 30.76182,6.61374243 30.3646707,7.14839241 C30.9251161,8.34018692 31.4841456,10.2140481 31.0532516,11.879598 C29.0807199,8.88941398 27.3283547,7.31790983 25.7071927,6.77291483 C23.3599295,5.99351084 22.122938,6.37674719 17.3613942,8.50923412 C13.2056032,10.3703991 5.57693881,14.8093576 1.70361235,17.193887 C0.721948031,17.798366 0.0550770316,18.2107565 0.0550770316,18.2107565 C0.0550770316,18.2107565 15.7102631,12.1403397 19.312452,10.9045789" id="Fill-60" fill="#F48025"></path>
                            <path d="M27.0008186,6.31249045 C27.0008186,6.31249045 28.3864755,4.88440604 31.0027525,3.44503615 C34.0223142,1.78254276 38.5221596,0.193405043 38.5221596,0.193405043 C38.5221596,0.193405043 34.9076999,0.861835067 30.043506,3.15419973 C28.2264831,4.01025098 25.8700168,5.94359607 25.8700168,5.94359607 L27.0008186,6.31249045 Z" id="Fill-62" fill="#F48025"></path>
                        </g>
                    </g>
                </g>
            </g>
        </g>
    </g>
</svg>